<svg width="30" height="30" viewBox="0 0 30 30" fill="none" xmlns="http://www.w3.org/2000/svg">
<path fill-rule="evenodd" clip-rule="evenodd" d="M15 1.52349C7.5582 1.52349 1.52542 7.54859 1.52542 14.9809C1.52542 18.5898 2.94773 21.8668 5.26304 24.2834C5.6497 22.2749 6.65276 20.422 8.15107 18.9926C8.96834 18.2129 9.90488 17.5859 10.9163 17.1294C9.8288 16.0694 9.15253 14.5886 9.15253 12.9496C9.15253 9.72427 11.7705 7.1096 15 7.1096C18.2295 7.1096 20.8474 9.72427 20.8474 12.9496C20.8474 14.5886 20.1712 16.0694 19.0837 17.1294C20.1269 17.6003 21.09 18.2523 21.9245 19.0655C23.3822 20.486 24.3571 22.3105 24.7369 24.2834C27.0523 21.8668 28.4746 18.5898 28.4746 14.9809C28.4746 7.54859 22.4418 1.52349 15 1.52349ZM24.689 26.4177C27.9377 23.6697 30 19.5659 30 14.9809C30 6.7072 23.2843 0 15 0C6.71573 0 0 6.7072 0 14.9809C0 21.6705 4.39017 27.3359 10.45 29.2603C15.2251 30.8283 20.6455 29.908 24.647 26.4568C24.6615 26.4443 24.6755 26.4312 24.689 26.4177ZM23.3666 25.5306C23.2151 23.498 22.326 21.5853 20.8592 20.1559C19.8554 19.1776 18.6315 18.4751 17.3055 18.0966C17.0104 18.0123 16.7946 17.7596 16.7579 17.4553C16.7212 17.151 16.8707 16.8543 17.1373 16.7024C18.4439 15.9583 19.322 14.5559 19.322 12.9496C19.322 10.5657 17.387 8.63308 15 8.63308C12.613 8.63308 10.678 10.5657 10.678 12.9496C10.678 14.5559 11.5561 15.9583 12.8627 16.7024C13.1293 16.8543 13.2788 17.151 13.2421 17.4553C13.2054 17.7596 12.9896 18.0123 12.6945 18.0966C11.3973 18.4669 10.1971 19.1474 9.20475 20.0942C7.72094 21.5098 6.81114 23.4162 6.63974 25.4501C7.92592 26.5118 9.36746 27.295 10.8821 27.7984C12.1801 28.214 13.5638 28.4384 15 28.4384C18.1613 28.4384 21.0683 27.3511 23.3666 25.5306Z" fill="#434343"/>
</svg>
