<svg width="26" height="27" viewBox="0 0 26 27" fill="none" xmlns="http://www.w3.org/2000/svg">
<path d="M18.0192 26.0001H7.55224C6.67682 26.0001 5.81027 25.8253 5.00377 25.486C4.19727 25.1466 3.46718 24.6496 2.85662 24.0244C2.24606 23.3991 1.76741 22.6582 1.44894 21.8455C1.13047 21.0328 0.978642 20.1647 1.00242 19.2925L1.26477 10.2839C1.26538 9.14795 1.71841 8.05871 2.52433 7.25548C3.33025 6.45225 4.42314 6.00072 5.56288 6.00012H20.0085C21.1483 6.00072 22.2412 6.45225 23.0471 7.25548C23.853 8.05871 24.3061 9.14795 24.3067 10.2839L24.569 19.2925C24.5928 20.1647 24.441 21.0328 24.1225 21.8455C23.804 22.6582 23.3254 23.3991 22.7148 24.0244C22.1042 24.6496 21.3742 25.1466 20.5677 25.486C19.7612 25.8253 18.8946 26.0001 18.0192 26.0001Z" stroke="#434343" stroke-miterlimit="10"/>
<path d="M17.4293 10.2859C17.4293 11.4225 16.9401 12.5126 16.0694 13.3163C15.1987 14.1201 14.0178 14.5716 12.7864 14.5716C11.555 14.5716 10.3741 14.1201 9.50342 13.3163C8.63271 12.5126 8.14355 11.4225 8.14355 10.2859" stroke="#434343" stroke-miterlimit="10"/>
<path d="M8.14355 6C8.14355 4.67392 8.63271 3.40215 9.50342 2.46447C10.3741 1.52678 11.555 1 12.7864 1C14.0178 1 15.1987 1.52678 16.0694 2.46447C16.9401 3.40215 17.4293 4.67392 17.4293 6" stroke="#434343" stroke-miterlimit="10"/>
</svg>
